<svg width="184" height="48" viewBox="0 0 184 48" fill="none" xmlns="http://www.w3.org/2000/svg">
<path d="M30.067 10.78C27.8114 7.79963 24.367 5.74299 20.6447 5.17256C18.7703 4.98417 16.8853 4.98417 15.0057 5.01556C14.5715 4.99986 14.2883 5.36881 13.997 5.62523C12.4668 7.15596 10.9207 8.67359 9.37987 10.1938C8.73653 10.827 8.13025 11.5126 7.38104 12.0307C7.65108 12.1301 7.92379 12.2401 8.22292 12.2112C10.4971 12.2139 12.7739 12.2034 15.0481 12.2087C16.8589 12.2296 18.6935 12.0857 20.4753 12.4886L20.6421 12.5462C23.4034 13.428 25.4366 16.0341 25.6855 18.881C26.0402 22.1832 23.7502 25.4147 20.6103 26.4692C18.6221 26.9794 16.5571 26.7178 14.5318 26.7805C13.3457 26.778 12.157 26.7989 10.971 26.7518C10.8995 24.9411 10.9948 23.1278 10.9419 21.3145C10.9472 20.71 10.873 20.0872 11.0372 19.4959C12.2073 19.4017 13.3855 19.4881 14.5583 19.4436C12.2735 17.0939 7.26987 12.3813 7.15602 12.3447C4.82362 14.7572 2.3509 17.0337 0 19.4331C1.20989 19.475 2.4224 19.4462 3.63229 19.4698C3.71169 24.3078 3.64287 29.1486 3.66667 33.9867C8.93776 33.9422 14.2141 34.0888 19.4799 33.903C19.8691 33.9082 20.2556 33.8611 20.6447 33.8324C22.9162 33.4058 25.1268 32.5633 26.9986 31.2C30.3026 28.8555 32.5079 25.0798 32.9183 21.0816C33.3048 17.4628 32.3147 13.6844 30.067 10.78Z" fill="#0284C7"/>
<path d="M30.7339 14.8403C31.0727 15.7326 31.328 16.681 31.5 17.6854L28.2107 20C28.1549 18.877 28.0004 17.8384 27.7472 16.8843L30.7339 14.8403Z" fill="#0EA5E9"/>
<path d="M30.1431 13.5042C30.1148 13.4486 30.0861 13.3932 30.057 13.338C28.9431 11.1768 27.3228 9.52167 25.1962 8.37266C24.9612 8.24108 24.7213 8.11686 24.4764 8L22.5 10.5127C23.67 11.009 24.6701 11.7183 25.5 12.6404C26.2377 13.4486 26.826 14.3844 27.2652 15.4479L30.1431 13.5042Z" fill="#0EA5E9"/>
<path d="M127.324 13.232H135.644C137.671 13.232 139.271 13.3707 140.444 13.648C141.639 13.9253 142.503 14.416 143.036 15.12C143.591 15.8027 143.868 16.7627 143.868 18V21.936C143.868 23.3013 143.57 24.368 142.972 25.136C142.396 25.904 141.468 26.448 140.188 26.768C138.93 27.088 137.223 27.248 135.068 27.248H132.316V34H127.324V13.232ZM135.484 23.824C136.786 23.824 137.703 23.6747 138.236 23.376C138.77 23.056 139.036 22.5227 139.036 21.776V18.448C139.036 17.7653 138.78 17.3173 138.268 17.104C137.778 16.8907 136.828 16.784 135.42 16.784H132.316V23.824H135.484ZM151.291 13.232H157.371L164.859 34H159.803L157.947 28.528H150.363L148.539 34H143.611L151.291 13.232ZM156.859 25.2L154.235 17.392H154.107L151.483 25.2H156.859ZM171.098 25.68L163.578 13.232H169.242L173.626 21.36L177.978 13.232H183.674L176.09 25.616V34H171.098V25.68Z" fill="#475569"/>
<path d="M35.5963 13.232H40.5883V34H35.5963V13.232ZM43.465 13.232H48.521L58.569 27.408V13.232H63.017V34H57.961L47.913 19.6V34H43.465V13.232ZM65.8963 13.232H81.7362V16.784H70.8883V21.552H80.6803V25.104H70.8883V30.448H82.0563V34H65.8963V13.232ZM83.8275 13.232H93.1715C95.9448 13.232 97.9502 13.5733 99.1875 14.256C100.425 14.9173 101.044 16.0373 101.044 17.616V21.264C101.044 22.48 100.606 23.44 99.7315 24.144C98.8782 24.8267 97.7368 25.264 96.3075 25.456L102.324 34H96.5635L91.1235 25.84H88.8195V34H83.8275V13.232ZM93.1075 22.544C94.2808 22.544 95.0808 22.3947 95.5075 22.096C95.9342 21.776 96.1475 21.168 96.1475 20.272V18.8C96.1475 18.032 95.9128 17.5093 95.4435 17.232C94.9955 16.9333 94.2168 16.784 93.1075 16.784H88.8195V22.544H93.1075ZM112.979 34.32C111.827 34.32 110.76 34.2453 109.779 34.096C108.819 33.9467 107.816 33.6907 106.771 33.328C105.64 32.944 104.755 32.3253 104.115 31.472C103.475 30.5973 103.155 29.5413 103.155 28.304V19.216C103.155 18.192 103.379 17.2747 103.827 16.464C104.296 15.6533 104.893 15.0133 105.619 14.544C106.259 14.1387 107.048 13.7973 107.987 13.52C108.925 13.2427 109.8 13.072 110.611 13.008C111.357 12.944 112.147 12.912 112.979 12.912C113.96 12.912 114.813 12.9547 115.539 13.04C116.264 13.104 117.075 13.2533 117.971 13.488C118.995 13.7867 119.837 14.1493 120.499 14.576C121.16 15.0027 121.715 15.6 122.163 16.368C122.632 17.1573 122.867 18.1067 122.867 19.216V28.304C122.867 29.456 122.557 30.448 121.939 31.28C121.341 32.112 120.509 32.7413 119.443 33.168C117.523 33.936 115.368 34.32 112.979 34.32ZM113.043 30.768C113.747 30.768 114.333 30.7467 114.803 30.704C115.293 30.64 115.795 30.5333 116.307 30.384C116.819 30.2347 117.203 29.9893 117.459 29.648C117.736 29.2853 117.875 28.8373 117.875 28.304V19.184C117.875 18.2027 117.48 17.5093 116.691 17.104C115.901 16.6773 114.675 16.464 113.011 16.464C111.347 16.464 110.12 16.6667 109.331 17.072C108.541 17.4773 108.147 18.1813 108.147 19.184V28.304C108.147 28.8373 108.285 29.2853 108.563 29.648C108.84 29.9893 109.245 30.2347 109.779 30.384C110.291 30.5333 110.781 30.64 111.251 30.704C111.741 30.7467 112.339 30.768 113.043 30.768Z" fill="#0284C7"/>
</svg>
